<svg xmlns="http://www.w3.org/2000/svg" fill-rule="evenodd" stroke-linejoin="round" stroke-miterlimit="2" clip-rule="evenodd" viewBox="0 0 32 32" id="calendar">
  <path d="M21 5h-2V4a3 3 0 1 0-6 0v1h-2V4a3 3 0 1 0-6 0v1H3.5A2.5 2.5 0 0 0 1 7.5v21A2.5 2.5 0 0 0 3.5 31h25a2.5 2.5 0 0 0 2.5-2.5v-21A2.5 2.5 0 0 0 28.5 5H27V4a3 3 0 1 0-6 0v1Zm7.5 2H23v1a1 1 0 0 0 1 1 1 1 0 0 1 0 2 3 3 0 0 1-3-3V7h-6v1a1 1 0 0 0 1 1 1 1 0 0 1 0 2 3 3 0 0 1-3-3V7H7v1a1 1 0 0 0 1 1 1 1 0 0 1 0 2 3 3 0 0 1-3-3V7H3.5a.504.504 0 0 0-.354.146A.504.504 0 0 0 3 7.5v21c0 .133.053.26.146.354A.504.504 0 0 0 3.5 29h25c.133 0 .26-.053.354-.146A.504.504 0 0 0 29 28.5v-21a.504.504 0 0 0-.146-.354A.504.504 0 0 0 28.5 7ZM8 23a1 1 0 1 1 0 2 1 1 0 0 1 0-2Zm4 0a1 1 0 1 1 0 2 1 1 0 0 1 0-2Zm4 0a1 1 0 1 1 0 2 1 1 0 0 1 0-2Zm4 0a1 1 0 1 1 0 2 1 1 0 0 1 0-2ZM8 19a1 1 0 1 1 0 2 1 1 0 0 1 0-2Zm4 0a1 1 0 1 1 0 2 1 1 0 0 1 0-2Zm4 0a1 1 0 1 1 0 2 1 1 0 0 1 0-2Zm4 0a1 1 0 1 1 0 2 1 1 0 0 1 0-2Zm4 0a1 1 0 1 1 0 2 1 1 0 0 1 0-2Zm-12-4a1 1 0 1 1 0 2 1 1 0 0 1 0-2Zm4 0a1 1 0 1 1 0 2 1 1 0 0 1 0-2Zm4 0a1 1 0 1 1 0 2 1 1 0 0 1 0-2Zm4 0a1 1 0 1 1 0 2 1 1 0 0 1 0-2ZM9 5V4a1 1 0 0 0-2 0v1h2Zm8 0V4a1 1 0 0 0-2 0v1h2Zm8 0V4a1 1 0 0 0-2 0v1h2Z"></path>
</svg>
