<svg xmlns="http://www.w3.org/2000/svg" width="48" height="48" id="search">
  <path fill="#B3E5FC" d="m27.881 30.71 2.828-2.83 4.244 4.242-2.828 2.83z"></path>
  <path fill="#0277BD" d="m32.126 35.661-4.95-4.95 3.535-3.536 4.95 4.95-3.535 3.536zm-3.536-4.95 3.536 3.536 2.121-2.122-3.536-3.536-2.121 2.122z"></path>
  <path fill="#8C9EFF" d="m45.207 42.379-2.828 2.828a.999.999 0 0 1-1.414 0l-9.899-9.899a.999.999 0 0 1 0-1.414l2.828-2.829a1 1 0 0 1 1.414 0l9.899 9.9a.999.999 0 0 1 0 1.414z"></path>
  <path fill="#0277BD" d="M41.672 45.999c-.384 0-.769-.146-1.061-.438l-9.899-9.899a1.501 1.501 0 0 1 0-2.121l2.828-2.829a1.504 1.504 0 0 1 2.121 0l9.899 9.9a1.502 1.502 0 0 1 0 2.122l-2.828 2.828a1.498 1.498 0 0 1-1.06.437zm-7.071-14.727a.502.502 0 0 0-.354.146l-2.828 2.829a.5.5 0 0 0 0 .707l9.899 9.899a.5.5 0 0 0 .707 0l2.828-2.828a.502.502 0 0 0 0-.708l-9.899-9.9a.503.503 0 0 0-.353-.145z"></path>
  <path fill="#E8EAF6" d="M43.602 41.273a.502.502 0 0 1-.354-.146l-7.778-7.778a.5.5 0 0 1 .707-.707l7.778 7.778a.5.5 0 0 1-.353.853z"></path>
  <circle cx="18.5" cy="18.5" r="16" fill="#E1F5FE"></circle>
  <path fill="#0277BD" d="M18.5 35C9.402 35 2 27.598 2 18.5S9.402 2 18.5 2 35 9.402 35 18.5c0 3.703-1.198 7.202-3.466 10.119a.5.5 0 0 1-.789-.614A15.35 15.35 0 0 0 34 18.5C34 9.953 27.047 3 18.5 3S3 9.953 3 18.5 9.953 34 18.5 34c4.027 0 7.844-1.538 10.745-4.33a.5.5 0 0 1 .693.721A16.416 16.416 0 0 1 18.5 35z"></path>
  <circle cx="18.5" cy="18.5" r="13.5" fill="#B3E5FC"></circle>
  <path fill="#FFF" d="M18.5 32.5c-7.72 0-14-6.28-14-14s6.28-14 14-14 14 6.28 14 14-6.28 14-14 14zm0-27c-7.168 0-13 5.832-13 13s5.832 13 13 13 13-5.832 13-13-5.832-13-13-13z"></path>
  <path fill="#FFF" d="M17.627 8.536a.5.5 0 0 1-.04-.998c.302-.025.605-.038.913-.038a.5.5 0 0 1 0 1c-.28 0-.557.012-.831.034l-.042.002zM8 19a.5.5 0 0 1-.5-.5c0-4.645 2.938-8.811 7.313-10.367a.5.5 0 0 1 .336.943A10.02 10.02 0 0 0 8.5 18.5a.5.5 0 0 1-.5.5z"></path>
</svg>
