<svg width="21" height="20" viewBox="0 0 21 20" fill="none" xmlns="http://www.w3.org/2000/svg">
<path d="M19.25 10.625V15.625C19.25 15.9565 19.1183 16.2745 18.8839 16.5089C18.6495 16.7433 18.3315 16.875 18 16.875H3C2.66848 16.875 2.35054 16.7433 2.11612 16.5089C1.8817 16.2745 1.75 15.9565 1.75 15.625V10.625C1.75 10.2935 1.8817 9.97554 2.11612 9.74112C2.35054 9.5067 2.66848 9.375 3 9.375H6.75C6.91576 9.375 7.07473 9.44085 7.19194 9.55806C7.30915 9.67527 7.375 9.83424 7.375 10C7.375 10.1658 7.30915 10.3247 7.19194 10.4419C7.07473 10.5592 6.91576 10.625 6.75 10.625H3V15.625H18V10.625H14.25C14.0842 10.625 13.9253 10.5592 13.8081 10.4419C13.6908 10.3247 13.625 10.1658 13.625 10C13.625 9.83424 13.6908 9.67527 13.8081 9.55806C13.9253 9.44085 14.0842 9.375 14.25 9.375H18C18.3315 9.375 18.6495 9.5067 18.8839 9.74112C19.1183 9.97554 19.25 10.2935 19.25 10.625ZM7.19219 6.06719L9.875 3.3836V10C9.875 10.1658 9.94085 10.3247 10.0581 10.4419C10.1753 10.5592 10.3342 10.625 10.5 10.625C10.6658 10.625 10.8247 10.5592 10.9419 10.4419C11.0592 10.3247 11.125 10.1658 11.125 10V3.3836L13.8078 6.06719C13.9251 6.18447 14.0841 6.25035 14.25 6.25035C14.4159 6.25035 14.5749 6.18447 14.6922 6.06719C14.8095 5.94992 14.8753 5.79086 14.8753 5.625C14.8753 5.45915 14.8095 5.30009 14.6922 5.18282L10.9422 1.43282C10.8841 1.37471 10.8152 1.32861 10.7393 1.29715C10.6635 1.2657 10.5821 1.24951 10.5 1.24951C10.4179 1.24951 10.3365 1.2657 10.2607 1.29715C10.1848 1.32861 10.1159 1.37471 10.0578 1.43282L6.30781 5.18282C6.19054 5.30009 6.12465 5.45915 6.12465 5.625C6.12465 5.79086 6.19054 5.94992 6.30781 6.06719C6.42509 6.18447 6.58415 6.25035 6.75 6.25035C6.91585 6.25035 7.07491 6.18447 7.19219 6.06719ZM16.125 13.125C16.125 12.9396 16.07 12.7583 15.967 12.6042C15.864 12.45 15.7176 12.3298 15.5463 12.2589C15.375 12.1879 15.1865 12.1693 15.0046 12.2055C14.8227 12.2417 14.6557 12.331 14.5246 12.4621C14.3935 12.5932 14.3042 12.7603 14.268 12.9421C14.2318 13.124 14.2504 13.3125 14.3214 13.4838C14.3923 13.6551 14.5125 13.8015 14.6667 13.9045C14.8208 14.0075 15.0021 14.0625 15.1875 14.0625C15.4361 14.0625 15.6746 13.9637 15.8504 13.7879C16.0262 13.6121 16.125 13.3736 16.125 13.125Z" fill="white"/>
</svg>
